<svg width="256" height="256" viewBox="0 -23 292 292" fill="none" xmlns="http://www.w3.org/2000/svg">
  <!-- Red Shield Element -->
  <path d="M67.5725 0.0109816C68.5792 0.252575 69.5708 0.603986 70.5881 0.710141C74.3846 1.11645 78.1884 1.45322 81.9921 1.79731C85.0289 2.07185 88.0701 2.2988 91.1035 2.57334C94.8671 2.91743 98.6273 3.30544 102.391 3.64587C105.424 3.92041 108.465 4.12539 111.499 4.40359C115.117 4.7367 118.728 5.12106 122.347 5.46514C124.011 5.62255 125.686 5.71408 127.349 5.86414C132.519 6.33998 137.685 6.85613 142.855 7.30637C146.193 7.59559 149.547 7.74565 152.889 8.04213C156.394 8.35327 159.89 8.8035 163.395 9.12202C166.501 9.40385 169.622 9.53563 172.728 9.82479C176.293 10.1543 179.846 10.6228 183.409 10.9596C186.563 11.2561 189.727 11.4281 192.88 11.7063C196.466 12.0248 200.048 12.4128 203.634 12.7496C205.36 12.9106 207.089 13.0058 208.814 13.1669C212.44 13.5109 216.059 13.8953 219.684 14.2284C221.243 14.3712 222.805 14.4187 224.367 14.5103C223.066 15.7695 221.77 17.0287 220.469 18.2879C219.913 18.621 219.307 18.8882 218.812 19.2946C202.987 32.3553 187.177 45.4306 171.363 58.5022C142.727 82.1746 114.097 105.847 85.4613 129.512C84.9345 129.948 84.3786 130.34 83.6597 130.882C83.5943 129.871 83.6049 129.201 83.5032 128.546C82.8094 124.15 82.0391 119.768 81.3888 115.365C80.5458 109.655 79.8268 103.929 78.9911 98.2189C78.3878 94.1079 77.647 90.0153 77.0292 85.9049C76.1974 80.3626 75.4454 74.8064 74.6242 69.2607C73.9997 65.0547 73.2835 60.8632 72.6735 56.6538C72.1249 52.8944 71.7109 49.1167 71.1512 45.3611C70.4937 40.9685 69.6982 36.6014 69.044 32.2088C68.434 28.1054 67.9614 23.9763 67.3731 19.8693C66.5994 14.448 65.7709 9.03413 64.9643 3.61659C64.8665 2.41228 64.7643 1.20431 64.6665 0C65.6363 0 66.6027 0 67.5725 0V0.0109816Z" fill="#EA0A2A"/>
  
  <!-- Left Dark Grey/Brownish Element -->
  <path d="M63.5804 245.972C63.2312 245.47 62.7625 245.017 62.5446 244.464C41.9351 191.474 21.3436 138.477 0.744755 85.4805C0.526777 84.9203 0.250674 84.3858 0 83.8368C0 83.5919 0 83.3498 0 83.1049C0.374194 82.7387 0.79925 82.4094 1.11895 81.9996C10.0705 70.4214 19.0112 58.8353 27.9591 47.2538C40.0641 31.5904 52.1764 15.9344 64.2814 0.27478C64.3323 1.42784 64.3831 2.57724 64.434 3.7303C64.3105 25.8581 64.1798 47.9895 64.0669 70.1172C63.7764 127.727 63.4966 185.339 63.2239 242.948C63.2239 243.578 63.4312 244.211 63.544 244.841C63.5547 245.218 63.5697 245.595 63.5804 245.972Z" fill="#58585A"/>
  
  <!-- Tiny Light Highlight -->
  <path d="M64.2824 0.273688C64.2349 0.182176 64.2421 0.0943237 64.3041 0.0101318C64.4242 0.0101318 64.5477 0.0101318 64.6678 0.0101318C64.7661 1.21444 64.8678 2.42241 64.9661 3.62671C64.7913 3.65966 64.6131 3.6926 64.4388 3.72555C64.3874 2.57249 64.3332 1.42675 64.2824 0.273688Z" fill="#C0C1C1"/>
  
  <!-- Right Medium Grey Element -->
  <path d="M220.473 18.295C221.774 17.0358 223.071 15.7766 224.372 14.5173C224.681 14.8651 225.047 15.1762 225.287 15.5642C247.099 51.0309 268.901 86.5087 290.702 121.982C290.891 122.29 291.08 122.601 291.36 123.063C288.602 126.09 285.841 129.135 283.062 132.166C255.935 161.776 228.804 191.382 201.662 220.977C201.237 221.442 200.666 221.772 200.161 222.164C198.941 220.703 197.72 219.242 196.499 217.782C196.144 217.05 195.911 216.219 195.421 215.593C175.159 189.838 154.877 164.1 134.594 138.36C130.612 133.305 126.634 128.246 122.602 123.125C123.016 122.642 123.346 122.221 123.713 121.829C137.98 106.63 152.25 91.432 166.524 76.241C184.209 57.4186 201.905 38.5998 219.583 19.7702C219.968 19.3602 220.183 18.7891 220.473 18.295Z" fill="#6D6E71"/>
  
  <!-- Lower Dark Grey Element -->
  <path d="M196.502 217.783C197.722 219.243 198.943 220.704 200.164 222.164C194.457 223.156 188.749 224.133 183.045 225.144C177.269 226.169 171.5 227.253 165.72 228.263C159.66 229.324 153.586 230.32 147.523 231.363C142.505 232.227 137.496 233.124 132.482 233.999C127.679 234.833 122.877 235.654 118.074 236.488C113.133 237.352 108.192 238.226 103.255 239.098C97.9037 240.046 92.5486 240.987 87.2013 241.949C79.8083 243.282 72.4225 244.636 65.0295 245.961C64.5608 246.045 64.0664 245.969 63.5832 245.969C63.5726 245.591 63.5614 245.211 63.5508 244.834C64.0591 241.887 64.4737 238.922 65.0949 235.997C66.8641 227.651 68.764 219.331 70.522 210.981C72.1533 203.24 73.6431 195.468 75.2308 187.715C76.5313 181.383 77.8642 175.057 79.2234 168.739C80.9233 160.825 82.6311 152.911 84.4327 145.019C84.5964 144.301 85.3556 143.475 86.0421 143.167C94.4346 139.43 102.877 135.82 111.266 132.072C112.552 131.497 113.228 131.698 114.165 132.672C128.744 147.812 143.363 162.915 157.978 178.015C170.813 191.273 183.663 204.528 196.502 217.783Z" fill="#404041"/>
</svg>
